<?xml version="1.0" encoding="utf-8"?>
<?xml-stylesheet type="text/xsl" href="rss1.xsl"?>
<rss version="2.0" xmlns:atom="http://www.w3.org/2005/Atom" xmlns:content="http://purl.org/rss/1.0/modules/content/" xmlns:dc="http://purl.org/dc/elements/1.1/" xmlns:media="http://search.yahoo.com/mrss/">
<channel>
 <title>Getty</title>
 <link>http://www.gettyimg.com/</link>
 <atom:link href="http://www.gettyimg.com/" rel="self" type="application/rss+xml" />

 
                <item>
                <title><![CDATA[【Unreleased/Unofficial (lossless)】WAV - Pharrel Williams &amp; Miley Cyrus - Doctor (Work It Out) [True Immersive 5.1] 16bits 48kHz 6ch]]></title>
                <link><![CDATA[https://sharemania.us/threads/pharrel-williams-miley-cyrus-doctor-work-it-out-true-immersive-5-1-16bits-48khz-6ch.238890/]]></link>
                <description><![CDATA[<article>
<blockquote class="messageText SelectQuoteContainer ugc baseHtml">
<img src="https://i.imgur.com/BAgmmDR.png" class="bbCodeImage LbImage" alt="[​IMG]" data-url="https://i.imgur.com/BAgmmDR.png" style=""> <br>
<br>
Before the studio posts a Dolby Atmos version, you can try this. Sorry if you notice the bad quality <img src="styles/default/xenforo/smilies/unhappy-48.png" class="mceSmilie" alt=":(" title="Frown    :("><br>
<b>You may need to activate Dolby Atmos on your phone, tablet or computer.</b><br>
<br>
<div class="ToggleTriggerAnchor bbCodeSpoilerContainer">
<button type="button" class="button bbCodeSpoilerButton ToggleTrigger Tooltip JsOnly" data-target="> .SpoilerTarget"><span>Spoiler: <span class="SpoilerTitle">MediaInfo</span></span></button>
<div class="SpoilerTarget bbCodeSpoilerText">Audio<br>
Format : PCM<br>
Format settings : Little / Signed<br>
Codec ID : 1<br>
Duration : 3 min 6 s<br>
Bit rate mode : Constant<br>
Bit rate : 4 608 kb/s<br>
Channel(s) : 6 channels<br>
Sampling rate : 48.0 kHz<br>
Bit depth : 16 bits<br>
Stream size : 102 MiB (97%)</div>
</div><br>
<div class="bbCodeBlock bbCodeVfcHH HiddenContent">
<div class="attribution type">Hidden Content:</div>
<blockquote>You must reply before you can see the hidden data contained here.</blockquote>
</div>Password:<br>
<div class="bbCodeBlock bbCodeVfcHH HiddenContent">
<div class="attribution type">Hidden Content:</div>
<blockquote>You must reply before you can see the hidden data contained here.</blockquote>
</div>
<div class="messageTextEndMarker">&nbsp;</div>
</blockquote>
</article>]]></description>
                <author><![CDATA[narxerino]]></author>
                </item>

                
                <item>
                <title><![CDATA[【Apple Music】WEB-RiP - Charli XCX - Von dutch (AMRip, AAC-2160p/HEVC)]]></title>
                <link><![CDATA[https://sharemania.us/threads/charli-xcx-von-dutch-amrip-aac-2160p-hevc.238891/]]></link>
                <description><![CDATA[<article>
<blockquote class="messageText SelectQuoteContainer ugc baseHtml">
<div style="text-align: center"><br>
<img src="https://files.catbox.moe/ay37bg.png" class="bbCodeImage LbImage" alt="[​IMG]" data-url="https://files.catbox.moe/ay37bg.png" style=""><br>
<span style="font-size: 18px"><b>Mediainfo:</b></span><br>
<div class="ToggleTriggerAnchor bbCodeSpoilerContainer">
<button type="button" class="button bbCodeSpoilerButton ToggleTrigger Tooltip JsOnly" data-target="> .SpoilerTarget"><span>Spoiler</span></button>
<div class="SpoilerTarget bbCodeSpoilerText"><div style="text-align: left"><br>
<div class="bbCodeBlock bbCodeCode">
<div class="type">Code:</div>
<pre>General
Complete name                  : Charli XCX - Von dutch (2160).mkv
Format                         : MPEG-4
Format profile                 : Base Media
Codec ID                       : isom (isom/iso4)
File size                      : 538 MiB
Duration                       : 3 min 35 s
Overall bit rate mode          : Variable
Overall bit rate               : 20.9 Mb/s
Frame rate                     : 25.000 FPS
Movie name                     : Von dutch
Performer                      : Charli XCX
Genre                          : Dance
ContentType                    : Music Video
Copyright                      : ℗ © 2024 Atlantic Recording Corporation
GenreID                        : 1617
AppleStoreCountry              : United States
AlbumTitleID                   : 432942256
AppleStoreCatalogID            : 1733597297

Video
ID                             : 2
Format                         : HEVC
Format/Info                    : High Efficiency Video Coding
Format profile                 : Main 10@L5@High
Duration                       : 3 min 35 s
Maximum bit rate               : 32.3 Mb/s
Width                          : 3 840 pixels
Height                         : 2 160 pixels
Display aspect ratio           : 16:9
Frame rate mode                : Constant
Frame rate                     : 25.000 FPS
Color space                    : YUV
Chroma subsampling             : 4:2:0
Bit depth                      : 10 bits
Scan type                      : Progressive
Bits/(Pixel*Frame)             : 0.100
Stream size                    : 531 MiB (99%)
Color range                    : Limited
Color primaries                : BT.709
Codec configuration box        : hvcC

Audio
ID                             : 1
Format                         : AAC LC
Format/Info                    : Advanced Audio Codec Low Complexity
Duration                       : 3 min 35 s
Bit rate mode                  : Variable
Bit rate                       : 265 kb/s
Maximum bit rate               : 355 kb/s
Channel(s)                     : 2 channels
Channel layout                 : L R
Sampling rate                  : 48.0 kHz
Compression mode               : Lossy
Stream size                    : 6.73 MiB (1%)
</pre>
</div></div></div>
</div><img src="https://files.catbox.moe/7ztjui.gif" class="bbCodeImage LbImage" alt="[​IMG]" data-url="https://files.catbox.moe/7ztjui.gif" style=""><br>
<br>
<span style="text-decoration: underline"><span style="color: #006600"><i><b><span style="font-size: 26px">je vous remercie!</span></b></i><br>
<img src="https://files.catbox.moe/ay37bg.png" class="bbCodeImage LbImage" alt="[​IMG]" data-url="https://files.catbox.moe/ay37bg.png" style=""><br>
<br>
<div class="bbCodeBlock bbCodeVfcHH HiddenContent">
<div class="attribution type">Hidden Content:</div>
<blockquote>You must reply before you can see the hidden data contained here.</blockquote>
</div></span></span>​</div>
<div class="messageTextEndMarker">&nbsp;</div>
</blockquote>
</article>]]></description>
                <author><![CDATA[sweetbee123]]></author>
                </item>

                </channel></rss>